<?xml version="1.0" encoding="UTF-8" standalone="no"?>
<!DOCTYPE svg PUBLIC "-//W3C//DTD SVG 1.1//EN" "http://www.w3.org/Graphics/SVG/1.1/DTD/svg11.dtd">
<svg version="1.1" xmlns="http://www.w3.org/2000/svg" xmlns:xlink="http://www.w3.org/1999/xlink" preserveAspectRatio="xMidYMid meet" viewBox="0 0 640 640" width="640" height="640"><defs><path d="M544.48 215.15C547.24 217.89 547.24 222.35 544.48 225.09C516.95 252.38 439.37 329.28 411.84 356.57C409.06 359.32 404.59 359.32 401.81 356.57C374.53 329.53 297.7 253.37 270.42 226.33C267.66 223.59 267.66 219.13 270.42 216.39C297.95 189.1 375.53 112.2 403.06 84.91C405.84 82.16 410.32 82.16 413.09 84.91C440.37 111.95 517.2 188.11 544.48 215.15Z" id="ankeYYYZK"></path><linearGradient id="gradientaTGv21jwy" gradientUnits="userSpaceOnUse" x1="478.79" y1="150.03" x2="346.74" y2="202.37"><stop style="stop-color: #377dff;stop-opacity: 1" offset="0%"></stop><stop style="stop-color: #0d60fb;stop-opacity: 1" offset="100%"></stop></linearGradient><path d="M502.55 217.28C504.46 219.18 504.44 222.28 502.52 224.17C483.33 243.03 429.27 296.15 410.09 315C408.15 316.91 405.04 316.89 403.13 314.97C384.28 296.13 331.2 243.05 312.35 224.21C310.45 222.3 310.46 219.2 312.38 217.31C331.57 198.45 385.63 145.33 404.82 126.48C406.75 124.58 409.86 124.59 411.78 126.51C430.62 145.35 483.7 198.43 502.55 217.28Z" id="cbHWExXf61"></path><linearGradient id="gradientejP5dbl9D" gradientUnits="userSpaceOnUse" x1="457.16" y1="171.89" x2="365.38" y2="207.81"><stop style="stop-color: #377dff;stop-opacity: 1" offset="0%"></stop><stop style="stop-color: #0d60fb;stop-opacity: 1" offset="100%"></stop></linearGradient></defs><g><g><g><g><use xlink:href="#ankeYYYZK" opacity="1" fill="url(#gradientaTGv21jwy)"></use></g><g><g><filter id="shadow6309896" x="194.93" y="9.06" width="426.04" height="424.36" filterUnits="userSpaceOnUse" primitiveUnits="userSpaceOnUse"><feFlood></feFlood><feComposite in2="SourceAlpha" operator="in"></feComposite><feGaussianBlur stdDeviation="7.07"></feGaussianBlur><feOffset dx="1" dy="1" result="afterOffset"></feOffset><feFlood flood-color="#0056f6" flood-opacity="0.5"></feFlood><feComposite in2="afterOffset" operator="in"></feComposite><feMorphology operator="dilate" radius="10"></feMorphology><feComposite in2="SourceAlpha" operator="out"></feComposite></filter><path d="M502.55 217.28C504.46 219.18 504.44 222.28 502.52 224.17C483.33 243.03 429.27 296.15 410.09 315C408.15 316.91 405.04 316.89 403.13 314.97C384.28 296.13 331.2 243.05 312.35 224.21C310.45 222.3 310.46 219.2 312.38 217.31C331.57 198.45 385.63 145.33 404.82 126.48C406.75 124.58 409.86 124.59 411.78 126.51C430.62 145.35 483.7 198.43 502.55 217.28Z" id="gU1cfyLB" fill="white" fill-opacity="1" filter="url(#shadow6309896)"></path></g><use xlink:href="#cbHWExXf61" opacity="1" fill="url(#gradientejP5dbl9D)"></use></g></g></g></g></svg>